<svg width="213" height="168" viewBox="0 0 213 168" fill="none" xmlns="http://www.w3.org/2000/svg">
<path d="M4.70739 13.8182V8.72727H24.9347V13.8182H17.9347V32H11.7074V13.8182H4.70739ZM27.3125 32V8.72727H37.358C39.0852 8.72727 40.5966 9.04167 41.892 9.67045C43.1875 10.2992 44.1951 11.2045 44.9148 12.3864C45.6345 13.5682 45.9943 14.9848 45.9943 16.6364C45.9943 18.303 45.6231 19.7083 44.8807 20.8523C44.1458 21.9962 43.1117 22.8598 41.7784 23.4432C40.4527 24.0265 38.9034 24.3182 37.1307 24.3182H31.1307V19.4091H35.858C36.6004 19.4091 37.233 19.3182 37.7557 19.1364C38.286 18.947 38.6913 18.6477 38.9716 18.2386C39.2595 17.8295 39.4034 17.2955 39.4034 16.6364C39.4034 15.9697 39.2595 15.428 38.9716 15.0114C38.6913 14.5871 38.286 14.2765 37.7557 14.0795C37.233 13.875 36.6004 13.7727 35.858 13.7727H33.6307V32H27.3125ZM40.9489 21.3182L46.767 32H39.9034L34.2216 21.3182H40.9489ZM62.4602 8.72727H68.7784V23.6364C68.7784 25.4091 68.3542 26.9432 67.5057 28.2386C66.6648 29.5265 65.4905 30.5227 63.983 31.2273C62.4754 31.9242 60.7254 32.2727 58.733 32.2727C56.7254 32.2727 54.9678 31.9242 53.4602 31.2273C51.9527 30.5227 50.7784 29.5265 49.9375 28.2386C49.1042 26.9432 48.6875 25.4091 48.6875 23.6364V8.72727H55.0057V23.0909C55.0057 23.8106 55.1648 24.4545 55.483 25.0227C55.8011 25.5833 56.2405 26.0227 56.8011 26.3409C57.3693 26.6591 58.0133 26.8182 58.733 26.8182C59.4602 26.8182 60.1042 26.6591 60.6648 26.3409C61.2254 26.0227 61.6648 25.5833 61.983 25.0227C62.3011 24.4545 62.4602 23.8106 62.4602 23.0909V8.72727ZM84.3267 16C84.2661 15.2424 83.982 14.6515 83.4744 14.2273C82.9744 13.803 82.2131 13.5909 81.1903 13.5909C80.5388 13.5909 80.0047 13.6705 79.5881 13.8295C79.179 13.9811 78.8759 14.1894 78.679 14.4545C78.482 14.7197 78.3797 15.0227 78.3722 15.3636C78.357 15.6439 78.4063 15.8977 78.5199 16.125C78.6411 16.3447 78.8305 16.5455 79.0881 16.7273C79.3456 16.9015 79.6752 17.0606 80.0767 17.2045C80.4782 17.3485 80.9555 17.4773 81.5085 17.5909L83.4176 18C84.7055 18.2727 85.8078 18.6326 86.7244 19.0795C87.6411 19.5265 88.3911 20.053 88.9744 20.6591C89.5578 21.2576 89.9858 21.9318 90.2585 22.6818C90.5388 23.4318 90.6828 24.25 90.6903 25.1364C90.6828 26.6667 90.3002 27.9621 89.5426 29.0227C88.785 30.0833 87.7017 30.8902 86.2926 31.4432C84.8911 31.9962 83.2055 32.2727 81.2358 32.2727C79.2131 32.2727 77.4479 31.9735 75.9403 31.375C74.4403 30.7765 73.2737 29.8561 72.4403 28.6136C71.6146 27.3636 71.1979 25.7652 71.1903 23.8182H77.1903C77.2282 24.5303 77.4063 25.1288 77.7244 25.6136C78.0426 26.0985 78.4896 26.4659 79.0653 26.7159C79.6487 26.9659 80.3419 27.0909 81.1449 27.0909C81.8191 27.0909 82.3835 27.0076 82.8381 26.8409C83.2926 26.6742 83.6373 26.4432 83.8722 26.1477C84.107 25.8523 84.2282 25.5152 84.2358 25.1364C84.2282 24.7803 84.1108 24.4697 83.8835 24.2045C83.6638 23.9318 83.3002 23.6894 82.7926 23.4773C82.285 23.2576 81.5994 23.053 80.7358 22.8636L78.4176 22.3636C76.357 21.9167 74.732 21.1705 73.5426 20.125C72.3608 19.072 71.7737 17.6364 71.7812 15.8182C71.7737 14.3409 72.1676 13.0492 72.9631 11.9432C73.7661 10.8295 74.8759 9.96212 76.2926 9.34091C77.7169 8.7197 79.3494 8.40909 81.1903 8.40909C83.0691 8.40909 84.6941 8.72348 86.0653 9.35227C87.4366 9.98106 88.4934 10.8674 89.2358 12.0114C89.9858 13.1477 90.3646 14.4773 90.3722 16H84.3267ZM92.4574 13.8182V8.72727H112.685V13.8182H105.685V32H99.4574V13.8182H92.4574ZM115.062 32V8.72727H131.835V13.8182H121.381V17.8182H130.972V22.9091H121.381V26.9091H131.79V32H115.062ZM143.923 32H134.969V8.72727H143.832C146.226 8.72727 148.295 9.19318 150.037 10.125C151.787 11.0492 153.135 12.3826 154.082 14.125C155.037 15.8598 155.514 17.9394 155.514 20.3636C155.514 22.7879 155.041 24.8712 154.094 26.6136C153.147 28.3485 151.806 29.6818 150.071 30.6136C148.336 31.5379 146.287 32 143.923 32ZM141.287 26.6364H143.696C144.848 26.6364 145.829 26.4508 146.639 26.0795C147.457 25.7083 148.079 25.0682 148.503 24.1591C148.935 23.25 149.151 21.9848 149.151 20.3636C149.151 18.7424 148.931 17.4773 148.491 16.5682C148.06 15.6591 147.423 15.0189 146.582 14.6477C145.749 14.2765 144.726 14.0909 143.514 14.0909H141.287V26.6364ZM164.812 32V8.72727H174.903C176.676 8.72727 178.165 8.96591 179.369 9.44318C180.581 9.92045 181.494 10.5947 182.108 11.4659C182.729 12.3371 183.04 13.3636 183.04 14.5455C183.04 15.4015 182.85 16.1818 182.472 16.8864C182.1 17.5909 181.578 18.1818 180.903 18.6591C180.229 19.1288 179.441 19.4545 178.54 19.6364V19.8636C179.54 19.9015 180.449 20.1553 181.267 20.625C182.085 21.0871 182.737 21.7273 183.222 22.5455C183.706 23.3561 183.949 24.3106 183.949 25.4091C183.949 26.6818 183.616 27.8144 182.949 28.8068C182.29 29.7992 181.35 30.5795 180.131 31.1477C178.911 31.7159 177.456 32 175.767 32H164.812ZM171.131 26.9545H174.085C175.146 26.9545 175.941 26.7576 176.472 26.3636C177.002 25.9621 177.267 25.3712 177.267 24.5909C177.267 24.0455 177.142 23.5833 176.892 23.2045C176.642 22.8258 176.286 22.5379 175.824 22.3409C175.369 22.1439 174.82 22.0455 174.176 22.0455H171.131V26.9545ZM171.131 18.1364H173.722C174.275 18.1364 174.763 18.0492 175.188 17.875C175.612 17.7008 175.941 17.4508 176.176 17.125C176.419 16.7917 176.54 16.3864 176.54 15.9091C176.54 15.1894 176.282 14.6402 175.767 14.2614C175.252 13.875 174.6 13.6818 173.812 13.6818H171.131V18.1364ZM185.233 8.72727H192.278L196.824 18.1818H197.006L201.551 8.72727H208.597L200.051 24.6818V32H193.778V24.6818L185.233 8.72727Z" fill="white"/>
<path d="M42.0952 160H33.1406V136.727H42.0043C44.3982 136.727 46.4664 137.193 48.2088 138.125C49.9588 139.049 51.3073 140.383 52.2543 142.125C53.2088 143.86 53.6861 145.939 53.6861 148.364C53.6861 150.788 53.2126 152.871 52.2656 154.614C51.3187 156.348 49.9777 157.682 48.2429 158.614C46.508 159.538 44.4588 160 42.0952 160ZM39.4588 154.636H41.8679C43.0194 154.636 44.0005 154.451 44.8111 154.08C45.6293 153.708 46.2505 153.068 46.6747 152.159C47.1065 151.25 47.3224 149.985 47.3224 148.364C47.3224 146.742 47.1027 145.477 46.6634 144.568C46.2315 143.659 45.5952 143.019 44.7543 142.648C43.9209 142.277 42.8982 142.091 41.6861 142.091H39.4588V154.636ZM56.6094 160V136.727H73.3821V141.818H62.9276V145.818H72.5185V150.909H62.9276V154.909H73.3366V160H56.6094ZM82.5611 160H75.7429L83.4247 136.727H92.0611L99.7429 160H92.9247L87.8338 143.136H87.652L82.5611 160ZM81.2884 150.818H94.1065V155.545H81.2884V150.818ZM101.984 160V136.727H108.303V154.909H117.712V160H101.984ZM120.266 160V136.727H137.038V141.818H126.584V145.818H136.175V150.909H126.584V154.909H136.993V160H120.266ZM140.172 160V136.727H150.217C151.945 136.727 153.456 137.042 154.751 137.67C156.047 138.299 157.054 139.205 157.774 140.386C158.494 141.568 158.854 142.985 158.854 144.636C158.854 146.303 158.482 147.708 157.74 148.852C157.005 149.996 155.971 150.86 154.638 151.443C153.312 152.027 151.763 152.318 149.99 152.318H143.99V147.409H148.717C149.46 147.409 150.092 147.318 150.615 147.136C151.145 146.947 151.551 146.648 151.831 146.239C152.119 145.83 152.263 145.295 152.263 144.636C152.263 143.97 152.119 143.428 151.831 143.011C151.551 142.587 151.145 142.277 150.615 142.08C150.092 141.875 149.46 141.773 148.717 141.773H146.49V160H140.172ZM153.808 149.318L159.626 160H152.763L147.081 149.318H153.808ZM174.092 144C174.032 143.242 173.748 142.652 173.24 142.227C172.74 141.803 171.979 141.591 170.956 141.591C170.304 141.591 169.77 141.67 169.354 141.83C168.945 141.981 168.642 142.189 168.445 142.455C168.248 142.72 168.145 143.023 168.138 143.364C168.123 143.644 168.172 143.898 168.286 144.125C168.407 144.345 168.596 144.545 168.854 144.727C169.111 144.902 169.441 145.061 169.842 145.205C170.244 145.348 170.721 145.477 171.274 145.591L173.183 146C174.471 146.273 175.573 146.633 176.49 147.08C177.407 147.527 178.157 148.053 178.74 148.659C179.323 149.258 179.751 149.932 180.024 150.682C180.304 151.432 180.448 152.25 180.456 153.136C180.448 154.667 180.066 155.962 179.308 157.023C178.551 158.083 177.467 158.89 176.058 159.443C174.657 159.996 172.971 160.273 171.001 160.273C168.979 160.273 167.214 159.973 165.706 159.375C164.206 158.777 163.039 157.856 162.206 156.614C161.38 155.364 160.964 153.765 160.956 151.818H166.956C166.994 152.53 167.172 153.129 167.49 153.614C167.808 154.098 168.255 154.466 168.831 154.716C169.414 154.966 170.107 155.091 170.911 155.091C171.585 155.091 172.149 155.008 172.604 154.841C173.058 154.674 173.403 154.443 173.638 154.148C173.873 153.852 173.994 153.515 174.001 153.136C173.994 152.78 173.876 152.47 173.649 152.205C173.429 151.932 173.066 151.689 172.558 151.477C172.051 151.258 171.365 151.053 170.501 150.864L168.183 150.364C166.123 149.917 164.498 149.17 163.308 148.125C162.126 147.072 161.539 145.636 161.547 143.818C161.539 142.341 161.933 141.049 162.729 139.943C163.532 138.83 164.642 137.962 166.058 137.341C167.482 136.72 169.115 136.409 170.956 136.409C172.835 136.409 174.46 136.723 175.831 137.352C177.202 137.981 178.259 138.867 179.001 140.011C179.751 141.148 180.13 142.477 180.138 144H174.092Z" fill="white"/>
<path d="M88.0984 44.4545V123H66.7745V64.0909H66.3143L49.1325 74.3693V56.267L68.462 44.4545H88.0984ZM132.735 124.074C128.158 124.074 123.812 123.358 119.695 121.926C115.604 120.469 111.974 118.18 108.803 115.061C105.633 111.942 103.14 107.876 101.325 102.865C99.5348 97.8537 98.6527 91.7812 98.6782 84.6477C98.7038 78.2812 99.522 72.554 101.133 67.4659C102.769 62.3778 105.083 58.044 108.075 54.4645C111.092 50.8849 114.697 48.1491 118.89 46.2571C123.083 44.3395 127.749 43.3807 132.888 43.3807C138.667 43.3807 143.755 44.4929 148.153 46.7173C152.55 48.9418 156.053 51.9205 158.661 55.6534C161.295 59.3608 162.829 63.4517 163.263 67.9261H142.246C141.761 65.7017 140.636 64.0781 138.871 63.0554C137.133 62.0071 135.138 61.483 132.888 61.483C128.414 61.483 125.129 63.4261 123.032 67.3125C120.961 71.1989 119.9 76.3125 119.849 82.6534H120.309C121.306 80.25 122.815 78.1918 124.834 76.4787C126.854 74.7656 129.207 73.4489 131.891 72.5284C134.576 71.608 137.414 71.1477 140.406 71.1477C145.161 71.1477 149.316 72.2216 152.87 74.3693C156.45 76.517 159.236 79.4574 161.231 83.1903C163.225 86.9233 164.209 91.1932 164.184 96C164.209 101.625 162.88 106.547 160.195 110.766C157.536 114.984 153.842 118.257 149.111 120.584C144.381 122.911 138.923 124.074 132.735 124.074ZM132.582 107.966C134.704 107.966 136.583 107.48 138.219 106.509C139.881 105.537 141.173 104.207 142.093 102.52C143.039 100.832 143.499 98.9148 143.474 96.767C143.499 94.5937 143.039 92.6761 142.093 91.0142C141.173 89.3267 139.881 87.9972 138.219 87.0256C136.583 86.054 134.704 85.5682 132.582 85.5682C131.022 85.5682 129.577 85.8494 128.248 86.4119C126.944 86.9489 125.806 87.7287 124.834 88.7514C123.863 89.7486 123.096 90.9375 122.533 92.3182C121.996 93.6733 121.715 95.1562 121.69 96.767C121.715 98.9148 122.201 100.832 123.147 102.52C124.093 104.207 125.384 105.537 127.021 106.509C128.657 107.48 130.511 107.966 132.582 107.966Z" fill="white"/>
</svg>
