<svg width="224" height="33" viewBox="0 0 224 33" fill="none" xmlns="http://www.w3.org/2000/svg">
<mask id="mask0_1702_439" style="mask-type:alpha" maskUnits="userSpaceOnUse" x="0" y="0" width="224" height="33">
<rect width="224" height="32.3855" fill="#D9D9D9"/>
</mask>
<g mask="url(#mask0_1702_439)">
<path d="M25.3794 30.0648V1.72744H19.3719L13.3644 16.8407L7.35688 1.72744H1.34937V30.0648H6.48787V14.2337C6.48787 13.2891 6.45009 12.0422 6.45009 12.0422H6.48787L11.7775 24.8885H14.9513L20.2409 12.0422H20.2787C20.2787 12.0422 20.2409 13.2891 20.2409 14.2337V30.0648H25.3794Z" fill="white"/>
<path d="M37.2501 30.0648V1.72744H31.7338V30.0648H37.2501Z" fill="white"/>
<path d="M56.8575 20.09C56.8575 21.148 56.7442 22.0926 56.4419 22.7349C55.7618 24.1706 54.6283 24.7752 52.7014 24.7752H49.0742V7.05486H52.7014C54.6283 7.05486 55.7618 7.65939 56.4419 9.09515C56.7442 9.73746 56.8575 10.682 56.8575 11.74V20.09ZM52.5502 30.0648C57.0087 30.0648 60.1824 28.1001 61.6182 24.5107C62.0716 23.3394 62.3361 21.9414 62.3361 20.1656V11.6266C62.3361 9.85081 62.0716 8.45284 61.6182 7.28156C60.1824 3.69217 57.0087 1.72744 52.5502 1.72744H43.5956V30.0648H52.5502Z" fill="white"/>
<path d="M86.2354 25.1908C84.8752 25.1908 83.515 24.624 82.8349 23.1883C82.4949 22.5459 82.4193 21.6014 82.4193 20.4679V11.3244C82.4193 10.1909 82.4949 9.24628 82.8349 8.60397C83.515 7.16821 84.8752 6.60146 86.2354 6.60146H86.651C87.9734 6.60146 89.3714 7.16821 90.0515 8.60397C90.3537 9.24628 90.4671 10.1909 90.4671 11.3244V20.4679C90.4671 21.6014 90.3537 22.5459 90.0515 23.1883C89.3714 24.624 87.9734 25.1908 86.651 25.1908H86.2354ZM86.651 30.4426C90.2782 30.4426 93.792 28.4779 95.2655 24.8885C95.7567 23.7172 95.9834 22.3193 95.9834 20.5434V11.2488C95.9834 9.47299 95.7567 8.07501 95.2655 6.90373C93.792 3.31433 90.2782 1.34961 86.651 1.34961H86.2354C82.6082 1.34961 79.0566 3.27655 77.583 6.90373C77.1296 8.07501 76.9029 9.47299 76.9029 11.2488V20.5434C76.9029 22.3193 77.1296 23.7172 77.583 24.8885C79.0566 28.5157 82.6082 30.4426 86.2354 30.4426H86.651Z" fill="white"/>
<path d="M121.482 30.0648V1.72744H115.965V12.6468H107.426V1.72744H101.91V30.0648H107.426V17.9364H115.965V30.0648H121.482Z" fill="white"/>
<path d="M133.346 30.0648V1.72744H127.83V30.0648H133.346Z" fill="white"/>
<path d="M148.609 25.1908C147.248 25.1908 145.888 24.624 145.208 23.1883C144.868 22.5459 144.792 21.6014 144.792 20.4679V11.3244C144.792 10.1909 144.868 9.24628 145.208 8.60397C145.888 7.16821 147.248 6.60146 148.609 6.60146H149.024C150.347 6.60146 151.745 7.16821 152.425 8.60397C152.727 9.24628 152.84 10.1909 152.84 11.3244V20.4679C152.84 21.6014 152.727 22.5459 152.425 23.1883C151.745 24.624 150.347 25.1908 149.024 25.1908H148.609ZM149.024 30.4426C152.651 30.4426 156.165 28.4779 157.639 24.8885C158.13 23.7172 158.357 22.3193 158.357 20.5434V11.2488C158.357 9.47299 158.13 8.07501 157.639 6.90373C156.165 3.31433 152.651 1.34961 149.024 1.34961H148.609C144.981 1.34961 141.43 3.27655 139.956 6.90373C139.503 8.07501 139.276 9.47299 139.276 11.2488V20.5434C139.276 22.3193 139.503 23.7172 139.956 24.8885C141.43 28.5157 144.981 30.4426 148.609 30.4426H149.024Z" fill="white"/>
<path d="M192.006 30.0648V15.0649H182.295V19.9389H186.565V20.6568C186.565 23.8306 184.638 25.153 182.598 25.153H182.333C181.011 25.153 179.575 24.5862 178.895 23.1505C178.593 22.5082 178.442 21.5258 178.442 20.4679V11.2488C178.442 10.3042 178.593 9.28407 178.895 8.67954C179.575 7.24378 180.935 6.63925 182.258 6.63925H182.711C183.996 6.63925 185.431 7.24378 186.074 8.67954C186.3 9.17072 186.414 9.96416 186.489 10.871H192.081C192.006 9.2085 191.741 7.88609 191.363 6.90373C189.965 3.31433 186.338 1.34961 182.635 1.34961H182.333C178.668 1.34961 175.117 3.31433 173.643 6.90373C173.152 8.07501 172.925 9.47299 172.925 11.2488V20.5434C172.925 22.3193 173.152 23.7172 173.643 24.8885C175.117 28.4779 178.668 30.4426 181.955 30.4426H182.22C184.978 30.4426 187.358 29.1958 188.681 26.9288H188.719L189.625 30.0648H192.006Z" fill="white"/>
<path d="M222.11 30.0648V1.72744H216.102L210.095 16.8407L204.087 1.72744H198.08V30.0648H203.218V14.2337C203.218 13.2891 203.181 12.0422 203.181 12.0422H203.218L208.508 24.8885H211.682L216.972 12.0422H217.009C217.009 12.0422 216.972 13.2891 216.972 14.2337V30.0648H222.11Z" fill="white"/>
<path d="M246.212 26.5887C244.436 26.5887 242.623 25.8331 241.754 23.9439C241.376 23.1127 241.187 22.017 241.187 20.7324V11.0599C241.187 9.77525 241.338 8.67954 241.716 7.84831C242.585 5.95915 244.436 5.20349 246.212 5.20349H246.514C248.29 5.20349 250.142 5.99694 250.973 7.88609C251.275 8.60397 251.426 9.4352 251.502 10.3798H255.582C255.507 8.94402 255.28 7.77274 254.902 6.7526C253.618 3.23877 250.066 1.34961 246.514 1.34961H246.212C242.698 1.34961 239.298 3.27655 237.862 6.7526C237.409 7.88609 237.182 9.24629 237.182 11.0599V20.7324C237.182 22.5459 237.409 23.9061 237.862 25.0396C239.26 28.5535 242.509 30.4426 246.023 30.4426H246.288C248.819 30.4426 251.162 29.3091 252.673 27.2311L253.618 30.0648H255.545V15.745H246.363V19.5233H251.615V20.5057C251.615 25.153 249.084 26.5887 246.514 26.5887H246.212Z" fill="white"/>
<path d="M280.827 29.9892C279.769 29.1958 279.353 27.7978 279.24 26.362L278.824 21.0724C278.598 18.1631 277.313 16.5762 274.857 15.7072V15.6694C277.653 14.3848 279.164 12.0422 279.164 9.24629C279.164 5.27906 276.784 2.86094 273.081 2.02971C272.174 1.84079 271.041 1.72744 269.756 1.72744H261.746V30.0648H265.751V17.8986H270.172C273.043 17.8986 274.63 18.8054 274.857 21.488L275.31 26.6643C275.424 27.9112 275.726 29.3091 276.444 30.0648H280.827V29.9892ZM269.605 5.58132C270.588 5.58132 271.494 5.65689 272.137 5.80802C274.026 6.26142 275.159 7.43269 275.159 9.4352C275.159 12.1556 273.27 14.0447 269.794 14.0447H265.751V5.58132H269.605Z" fill="white"/>
<path d="M299.21 20.7324C299.21 22.017 299.059 23.1505 298.681 23.9817C297.812 25.8709 295.96 26.5887 294.185 26.5887H293.882C292.107 26.5887 290.255 25.8709 289.386 23.9817C289.008 23.1505 288.857 22.017 288.857 20.7324V11.0599C288.857 9.77525 289.008 8.64176 289.386 7.81053C290.255 5.92137 292.107 5.20349 293.882 5.20349H294.185C295.96 5.20349 297.812 5.92137 298.681 7.81053C299.059 8.64176 299.21 9.77525 299.21 11.0599V20.7324ZM284.852 20.7324C284.852 22.5459 285.079 23.9061 285.532 25.0396C286.968 28.5157 290.368 30.4426 293.882 30.4426H294.185C297.698 30.4426 301.099 28.5157 302.535 25.0396C302.988 23.9061 303.215 22.5459 303.215 20.7324V11.0599C303.215 9.24629 302.988 7.88609 302.535 6.7526C301.099 3.27655 297.698 1.34961 294.185 1.34961H293.882C290.368 1.34961 286.968 3.27655 285.532 6.7526C285.079 7.88609 284.852 9.24629 284.852 11.0599V20.7324Z" fill="white"/>
<path d="M323.512 20.7324C323.512 22.017 323.361 23.1505 322.983 23.9817C322.114 25.8709 320.263 26.5887 318.487 26.5887H318.185C316.409 26.5887 314.558 25.8709 313.689 23.9817C313.311 23.1505 313.16 22.017 313.16 20.7324V1.72744H309.155V20.7324C309.155 22.5459 309.381 23.9061 309.835 25.0396C311.271 28.5157 314.671 30.4426 318.185 30.4426H318.487C322.001 30.4426 325.401 28.5157 326.837 25.0396C327.291 23.9061 327.517 22.5459 327.517 20.7324V1.72744H323.512V20.7324Z" fill="white"/>
<path d="M337.865 15.1782V5.61911H342.399C344.137 5.61911 344.969 5.8458 345.687 6.26142C347.085 7.05486 347.954 8.60397 347.954 10.4553C347.954 12.2312 347.085 13.7425 345.687 14.5359C344.969 14.9515 344.137 15.1782 342.399 15.1782H337.865ZM342.475 19.0699C344.477 19.0699 345.611 18.881 346.593 18.5032C349.88 17.2941 351.959 14.3092 351.959 10.4553C351.959 6.5259 349.88 3.50325 346.593 2.29419C345.611 1.91636 344.402 1.72744 342.475 1.72744H333.86V30.0648H337.865V19.0699H342.475Z" fill="white"/>
</g>
</svg>
