<svg width="224" height="42" viewBox="0 0 224 42" fill="none" xmlns="http://www.w3.org/2000/svg">
<path fill-rule="evenodd" clip-rule="evenodd" d="M21.8086 41.7988L10.7908 29.1777L9.278 39.6766L0 37.5213L2.36878 22.0801C2.86087 20.3687 2.70748 19.2501 2.00744 18.6362C1.11954 18.0429 0.440094 17.2388 0.0283101 16.1648L3.42141 15.154L5.07112 0.943218L14.4505 0.615253L13.0191 13.9732L28.5865 2.26751L33.112 9.13455C32.7049 10.0697 31.4855 11.0878 29.5805 12.1764L16.6278 21.9189L28.6349 35.7825L21.8086 41.7988ZM150.266 40.8233L138.205 25.1712C137.128 27.1494 136.212 29.1006 135.382 31.0367C134.263 33.7558 133.057 36.2422 131.787 38.5514L123.211 35.7096L134.484 8.88182C132.598 8.5384 130.923 8.54737 129.169 8.55676C127.715 8.56453 126.208 8.57261 124.482 8.38081C125.693 5.36852 126.985 2.64791 128.35 0.19725C131.048 0.388954 133.747 0.350098 136.445 0.208656C137.351 0.18544 138.248 0.151917 139.143 0.118496L139.143 0.118473C142.7 -0.0144501 146.213 -0.145729 150.08 0.379627C157.743 1.22726 159.396 5.74207 157.58 11.8325C155.938 16.6742 151.825 19.2653 147.325 21.5025L157.062 34.3097C155.629 36.3085 154.147 37.5316 152.578 38.8259C151.828 39.4446 151.059 40.0796 150.266 40.8233ZM52.8529 11.9535C51.2511 20.1438 49.884 28.3014 48.6425 36.4399C51.2058 36.5803 53.7692 36.6197 56.3325 36.471L58.499 25.4451L63.9387 36.4529C66.4804 36.585 69.0227 36.5959 71.5644 36.4466C73.1436 28.2387 74.5751 20.0433 75.8047 11.8659C73.1122 11.5691 70.5766 11.6126 68.1301 11.8504L65.9121 23.44L59.9469 11.8447C57.5015 11.7317 55.1023 11.7043 52.8529 11.9535ZM74.9518 36.4399C76.1934 28.3014 77.5605 20.1438 79.1623 11.9535C81.4117 11.7043 83.8108 11.7317 86.2563 11.8447L92.2215 23.44L94.4395 11.8504C96.886 11.6126 99.4215 11.5691 102.114 11.8659C100.819 20.1127 99.3968 28.3025 97.8738 36.4466C95.332 36.5959 92.7898 36.585 90.248 36.4529L84.8084 25.4451L82.6419 36.471C80.0785 36.6197 77.5152 36.5803 74.9518 36.4399ZM156.513 19.6371C154.852 23.7053 155.086 27.2144 156.489 30.378C158.743 34.7768 162.557 36.5109 166.979 36.5544C172.635 36.6492 177.776 33.7628 180.13 28.3263C181.535 24.627 181.517 20.222 180.12 17.4703C177.981 13.2529 174.375 11.5033 169.607 11.3965C162.588 11.2665 158.568 14.9207 156.513 19.6371ZM105.716 36.3934C105.975 33.5267 106.554 30.659 107.277 27.7923C107.775 25.6405 107.495 24.4359 106.8 22.9593L102.866 11.9495L103.088 11.7479C104.118 11.7798 105.142 11.7669 106.168 11.7539C107.676 11.7348 109.191 11.7156 110.74 11.8386C111.294 12.8782 111.706 14.1042 112.135 15.3844L112.135 15.3845L112.135 15.3845C112.385 16.1288 112.641 16.8913 112.935 17.6461C113.765 16.7487 114.596 15.6933 115.426 14.4768C116.065 13.467 116.75 12.5567 117.471 11.7303C120.062 11.6821 122.684 11.6801 125.378 11.7878L116.165 24.2914C115.389 25.3007 115.139 27.0115 114.863 29.5601C114.571 31.7258 114.135 34.036 113.637 36.409C111.058 36.611 108.416 36.6001 105.716 36.3934ZM33.9341 11.9816C32.2138 20.134 30.8436 28.2875 29.6953 36.44C34.9002 36.5483 40.1062 36.5685 45.3111 36.4286C45.8027 34.4354 46.1486 32.4423 46.3159 30.4491C44.5398 30.2144 43.0961 30.2465 41.6706 30.2781C40.6793 30.3002 39.6969 30.322 38.6176 30.2538C38.6572 29.1538 38.772 28.1217 39.209 27.3881C40.862 27.1939 42.6048 27.2315 44.412 27.2705C45.0781 27.2848 45.753 27.2994 46.4353 27.3026C46.9505 25.4732 47.3175 23.4665 47.4838 21.2205C45.8914 20.9895 44.5526 21.0103 43.1798 21.0315H43.1797H43.1797C42.2339 21.0462 41.2719 21.0611 40.1999 20.9941C40.2833 19.9506 40.4356 18.9196 40.8793 17.9398C43.7855 17.9326 46.5465 17.9072 48.6003 17.7922L49.5715 11.8811C44.0892 11.7101 38.7643 11.6598 33.9341 11.9816ZM186.133 35.5581C183.85 34.9369 182.382 34.0629 181.127 33.1225C181.486 32.5032 181.79 31.8397 182.1 31.1636C182.545 30.1937 183.002 29.1981 183.65 28.2709C184.555 28.5144 185.53 28.9543 186.55 29.519C188.143 30.4221 189.778 30.8008 191.483 30.3237C192.352 29.9662 192.93 29.4486 192.688 28.4668C192.468 27.8709 191.633 27.3896 189.976 27.0616C187.98 26.7078 186.156 25.9985 184.837 24.254C183.382 22.2111 183.226 19.22 184.558 16.6419C185.819 14.24 187.596 12.582 191.013 11.7069C194.968 10.9044 199.115 11.6489 203.081 13.5643C202.288 15.4979 201.437 17.2326 200.518 18.7325C199.513 18.6771 198.419 18.3076 197.286 17.7978C195.25 17.0403 193.33 16.8419 192.352 17.7978C191.755 18.405 191.528 19.1584 192.586 19.8589C193.297 20.3355 194.765 20.7982 196.356 21.1106C197.872 21.4541 199.275 22.0282 200.332 23.3178C201.849 25.0944 202.595 27.2243 202.239 29.8615C201.774 32.937 199.71 34.6333 196.78 35.5814C193.218 36.6456 189.67 36.5653 186.133 35.5581ZM202.046 33.1225C203.301 34.0629 204.769 34.9369 207.053 35.5581C210.589 36.5653 214.137 36.6456 217.699 35.5814C220.629 34.6333 222.693 32.937 223.158 29.8615C223.515 27.2243 222.768 25.0944 221.251 23.3178C220.195 22.0282 218.791 21.4541 217.275 21.1106C215.684 20.7982 214.216 20.3355 213.505 19.8589C212.447 19.1584 212.674 18.405 213.271 17.7978C214.249 16.8419 216.169 17.0403 218.205 17.7978C219.338 18.3076 220.432 18.6771 221.437 18.7325C222.356 17.2326 223.207 15.4979 224 13.5643C220.034 11.6489 215.887 10.9044 211.932 11.7069C208.515 12.582 206.739 14.24 205.477 16.6419C204.145 19.22 204.301 22.2111 205.756 24.254C207.075 25.9985 208.899 26.7078 210.896 27.0616C212.552 27.3896 213.387 27.8709 213.607 28.4668C213.849 29.4486 213.271 29.9662 212.403 30.3237C210.697 30.8008 209.062 30.4221 207.469 29.519C206.449 28.9543 205.474 28.5144 204.569 28.2709C203.921 29.1981 203.464 30.1937 203.02 31.1636C202.71 31.8397 202.405 32.5032 202.046 33.1225ZM172.131 24.4773C172.765 21.1039 171.275 18.6476 169.027 18.6118C166.049 18.4745 164.068 21.0708 163.79 24.2224C163.653 26.9979 165.105 28.6383 167.287 28.7657C169.742 28.9051 171.529 27.4715 172.131 24.4773ZM143.61 9.05782C145.878 9.07025 147.72 9.39562 147.653 11.1173C147.29 13.0711 143.992 14.8539 141.153 14.6648C141.36 14.2118 141.552 13.6493 141.75 13.0689C141.92 12.5734 142.093 12.0648 142.285 11.6002C142.682 10.6355 143.075 9.7868 143.61 9.05782Z" fill="white"/>
</svg>
