<svg width="224" height="55" viewBox="0 0 224 55" fill="none" xmlns="http://www.w3.org/2000/svg">
<path fill-rule="evenodd" clip-rule="evenodd" d="M11.3723 28.8034L7.78797 29.7145L9.72189 26.4428L13.3062 25.5301L11.3723 28.8034ZM19.5911 23.9309L21.0942 21.3909L17.5906 22.2833L19.4802 19.085L16.6941 19.7933L14.8062 22.9901L11.2234 23.9044L13.1114 20.7076L10.3285 21.4159L8.43735 24.6111L4.93538 25.5036L3.43386 28.0435L6.93741 27.1511L5.00507 30.4213L1.50311 31.3137L0 33.8552L3.50355 32.9628L1.61398 36.1612L4.40003 35.4497L6.28802 32.256L9.87077 31.3418L7.98119 34.5402L10.7657 33.8318L12.6568 30.6335L16.1572 29.7442L17.6603 27.2026L14.1568 28.0919L16.0907 24.8233L19.5911 23.9309Z" fill="white"/>
<path fill-rule="evenodd" clip-rule="evenodd" d="M45.8568 12.388C45.1644 12.8714 28.5954 22.2939 20.9239 24.9683C19.4127 25.475 19.4852 26.4311 19.5129 26.7007C19.5808 27.3112 20.2547 27.9899 21.5607 27.6862C22.5739 27.5792 25.9447 26.2126 27.26 27.7388C28.4073 29.0683 26.3102 32.8599 24.8175 36.6082C22.5137 41.8284 20.7466 47.2454 15.0103 50.3971C14.4212 50.6652 11.7597 52.2162 12.0804 53.7177C12.3487 54.5916 13.5731 54.1454 14.0511 53.9858C14.0511 53.9858 33.7982 47.5135 40.0172 46.4784C40.7172 46.3669 42.6262 45.8215 42.139 44.6934C41.3602 41.5619 33.1829 46.8317 34.0218 38.8844C34.5661 34.7333 38.2963 27.4491 41.6933 21.6617C44.6016 16.7018 47.1952 13.1162 47.2107 12.3802C47.1737 12.1075 46.8807 11.8038 45.8568 12.388Z" fill="white"/>
<path fill-rule="evenodd" clip-rule="evenodd" d="M88.0326 12.5287C90.7731 11.9143 96.362 8.20755 95.8518 5.54683C94.4246 -3.18046 47.2011 11.8324 51.5061 32.3935C57.2075 58.443 124.151 8.11146 172.062 39.5297C172.062 39.5297 210.479 36.2373 224 38.3498C206.788 29.7391 169.352 20.4762 141.924 20.8921C114.917 20.7723 78.5596 32.9228 71.1874 30.5378C61.1564 27.4611 69.9543 12.2309 86.3449 8.42652C86.963 8.31782 87.786 8.98734 87.0924 10.1468C85.4201 12.4578 87.5255 12.6389 88.0326 12.5287Z" fill="white"/>
<path fill-rule="evenodd" clip-rule="evenodd" d="M172.086 15.3525C170.077 16.1757 167.115 17.0462 166.494 16.3299C166.178 15.8504 166.879 14.6867 169.615 13.1259C170.487 12.6663 174.302 10.8948 175.532 12.5212C175.912 13.2023 174.498 14.3981 172.086 15.3525ZM90.2399 22.1179C89.2159 21.449 91.1691 17.3302 96.1522 14.9402C95.7917 15.2151 94.7475 16.837 96.5049 18.1946C96.2097 18.6405 91.9444 23.2312 90.2399 22.1179ZM196.296 21.5543C197.227 20.58 201.127 19.3507 202.376 18.0083C203.714 16.4384 202.115 14.4424 192.705 15.8779C192.705 15.8779 192.766 15.8412 192.881 15.7756C193.819 15.3083 196.397 13.4161 196.494 13.3291C196.393 13.3031 195.88 13.2741 195.395 13.2619C195.395 13.2619 189.915 12.9412 188.824 13.3184C188.269 14.0056 183.553 16.8079 178.524 17.3791C178.116 17.4661 177.723 17.0935 178.424 16.2918C180.155 14.3752 183.263 12.6892 184.08 11.6904C184.193 11.3758 182.944 10.5756 181.17 10.7451C181.17 10.7451 179.891 10.9177 179.307 11.3453C179.672 9.8899 174.669 6.28732 165.243 11.4323C164.544 11.7759 161.913 13.7765 161.273 15.1494C160.807 15.406 156.301 17.4371 155.398 16.4643C154.904 15.8061 156.24 15.235 156.647 15.0349C157.054 14.8364 161.139 13.8055 159.352 11.7179C158.903 11.1941 157.339 10.6519 156.779 9.97542C156.343 9.44396 156.65 8.80408 157.594 8.31539C158.844 7.80227 159.366 6.45836 157.796 6.17126C151.338 4.68533 143.601 14.6058 138.977 15.1494C138.513 15.1769 137.492 15.235 138.586 14.0911C139.734 12.8862 145.436 8.40244 141.303 7.88626C140.259 7.71522 136.62 8.34288 133.217 9.80285C133.217 9.80285 138.803 3.79958 145.884 0C145.884 0 139.114 0.548251 135.593 1.79289C133.672 2.94742 130.305 5.67951 125.698 10.9681C124.834 11.8477 118.406 17.4692 111.608 17.7716C110.245 17.7105 109.537 16.6476 112.38 14.0957C113.74 12.9106 116.165 11.3667 117.092 11.6583C117.612 11.8492 117.123 12.4479 116.784 12.9106C116.284 13.4497 116.684 14.1598 117.572 13.8575C119.031 13.3153 121.161 12.0737 121.988 10.232C123.136 7.68009 113.167 6.74852 107.271 13.3428C107.271 13.3428 104.066 15.3388 102.921 15.3999C103.727 14.6989 103.957 12.3868 101.443 11.5973C100.046 11.1406 94.9433 10.0884 87.7289 16.6445C81.2121 22.5149 86.2046 25.3402 86.2046 25.3402C88.1142 26.6077 95.2152 26.7299 101.225 18.8559C101.768 18.8559 103.987 17.5669 104.833 17.3485C104.369 18.2618 103.286 21.7911 108.404 22.095C112.101 22.324 120.535 18.2648 122.399 16.2643C122.399 16.2643 120.21 19.23 120.12 20.4243C120.12 20.4243 125.558 19.314 125.892 19.3155C126.512 18.3977 129.446 12.7258 134.642 12.1195C136.768 11.947 129.348 17.15 132.485 18.9322C138.07 21.5238 150.635 11.3835 151.956 11.3835C152.499 11.5362 153.355 12.9381 152.192 13.7261C151.476 14.2896 149.355 15.2991 148.699 17.2997C147.899 19.4453 150.033 21.3344 160.95 17.7975C161.262 18.7016 163.667 23.5061 171.813 18.1702C172.01 18.7474 168.464 24.036 181.243 19.2529C181.243 19.2529 179.089 21.0504 178.479 21.8613L183.715 22.6722C186.084 20.1692 189.613 17.1561 193.501 17.8296C197.559 18.7444 184.175 22.3897 192.217 25.3142C195.668 26.5695 205.838 26.2397 209.937 25.0989C208.86 25.0103 193.151 24.4117 196.296 21.5543Z" fill="white"/>
</svg>
